<svg width="75" height="30" viewBox="0 0 94 38" fill="none" xmlns="http://www.w3.org/2000/svg">
<path d="M23.2479 0H31.2055V24.2882C31.2055 27.0153 30.55 29.4015 29.2391 31.4469C27.9404 33.4922 26.121 35.0871 23.7809 36.2315C21.4408 37.3637 18.7147 37.9298 15.6027 37.9298C12.4785 37.9298 9.74635 37.3637 7.40625 36.2315C5.06614 35.0871 3.24674 33.4922 1.94805 31.4469C0.649348 29.4015 0 27.0153 0 24.2882V0H7.95758V23.6125C7.95758 25.037 8.27001 26.3031 8.89485 27.411C9.53195 28.5189 10.4263 29.3894 11.578 30.0225C12.7297 30.6555 14.0713 30.9721 15.6027 30.9721C17.1465 30.9721 18.4881 30.6555 19.6275 30.0225C20.7792 29.3894 21.6674 28.5189 22.2923 27.411C22.9294 26.3031 23.2479 25.037 23.2479 23.6125V0Z" fill="black"/>
<path d="M37.7526 37.4002V0H52.8224C55.5913 0 57.9008 0.407848 59.7508 1.22354C61.6008 2.03924 62.9914 3.17147 63.9225 4.62024C64.8537 6.05684 65.3193 7.71258 65.3193 9.58746C65.3193 11.0484 65.0252 12.3328 64.4371 13.4407C63.849 14.5364 63.0404 15.4373 62.0113 16.1435C60.9943 16.8374 59.8304 17.3305 58.5195 17.6227V17.9879C59.9529 18.0488 61.2945 18.4505 62.5442 19.1932C63.8061 19.9358 64.8292 20.9768 65.6133 22.316C66.3974 23.643 66.7895 25.2257 66.7895 27.064C66.7895 29.0485 66.2933 30.8199 65.3009 32.3782C64.3207 33.9244 62.8689 35.1479 60.9453 36.0489C59.0218 36.9498 56.6511 37.4002 53.8331 37.4002H37.7526ZM45.7102 30.9355H52.1975C54.4151 30.9355 56.0323 30.5155 57.0492 29.6755C58.0662 28.8233 58.5746 27.691 58.5746 26.2788C58.5746 25.2439 58.3234 24.3308 57.8211 23.5395C57.3188 22.7482 56.6021 22.1273 55.6709 21.6768C54.752 21.2263 53.6555 21.0011 52.3813 21.0011H45.7102V30.9355ZM45.7102 15.6504H51.6094C52.6998 15.6504 53.6677 15.4617 54.5131 15.0843C55.3707 14.6947 56.0446 14.1468 56.5347 13.4407C57.037 12.7346 57.2882 11.8885 57.2882 10.9023C57.2882 9.55094 56.8042 8.46132 55.8363 7.63345C54.8807 6.80558 53.5207 6.39164 51.7564 6.39164H45.7102V15.6504Z" fill="black"/>
<ellipse cx="84.5175" cy="28.0351" rx="9.48246" ry="9.07018" fill="black"/>
</svg>
